<?xml version="1.0" standalone="no"?>
<!DOCTYPE svg PUBLIC "-//W3C//DTD SVG 20010904//EN" "http://www.w3.org/TR/2001/REC-SVG-20010904/DTD/svg10.dtd">
<svg version="1.0" xmlns="http://www.w3.org/2000/svg" preserveAspectRatio="xMidYMid meet" height="24" viewBox="0 0 24 24" width="24" stroke-width="2" stroke="currentColor" stroke-linecap="round" stroke-linejoin="round">

  <g transform="translate(0.000000,24.000000) scale(0.100000,-0.100000)" fill="#000000" stroke="none">
    <path d="M90 210 c0 -5 9 -10 21 -10 11 0 17 5 14 10 -3 6 -13 10 -21 10 -8 0
-14 -4 -14 -10z" />
    <path d="M67 172 c-10 -10 -17 -35 -17 -55 0 -20 -4 -39 -10 -42 -6 -3 -10
-13 -10 -21 0 -11 17 -14 81 -14 71 0 80 2 77 17 -2 10 -18 24 -36 32 -37 17
-52 53 -33 83 10 16 8 18 -12 18 -13 0 -31 -8 -40 -18z" />
    <path d="M132 178 c-7 -7 -12 -21 -12 -33 0 -40 50 -61 78 -33 28 28 7 78 -33
78 -12 0 -26 -5 -33 -12z" />
    <path d="M98 23 c6 -2 18 -2 25 0 6 3 1 5 -13 5 -14 0 -19 -2 -12 -5z" />
  </g>
</svg>
